<?xml version="1.0" encoding="UTF-8" standalone="no"?>
<!-- Created with Inkscape (http://www.inkscape.org/) -->

<svg
   width="4.6540031mm"
   height="10.582766mm"
   viewBox="0 0 4.6540031 10.582766"
   version="1.1"
   id="svg1"
   xml:space="preserve"
   inkscape:version="1.4.3 (0d15f75042, 2025-12-25)"
   sodipodi:docname="zadv_v.svg"
   xmlns:inkscape="http://www.inkscape.org/namespaces/inkscape"
   xmlns:sodipodi="http://sodipodi.sourceforge.net/DTD/sodipodi-0.dtd"
   xmlns="http://www.w3.org/2000/svg"
   xmlns:svg="http://www.w3.org/2000/svg"><sodipodi:namedview
     id="namedview1"
     pagecolor="#ffffff"
     bordercolor="#000000"
     borderopacity="0.25"
     inkscape:showpageshadow="2"
     inkscape:pageopacity="0.0"
     inkscape:pagecheckerboard="0"
     inkscape:deskcolor="#d1d1d1"
     inkscape:document-units="mm"
     showgrid="false"
     inkscape:zoom="0.71179153"
     inkscape:cx="32.312832"
     inkscape:cy="-65.328117"
     inkscape:window-width="1920"
     inkscape:window-height="1008"
     inkscape:window-x="0"
     inkscape:window-y="0"
     inkscape:window-maximized="1"
     inkscape:current-layer="layer1" /><defs
     id="defs1" /><g
     inkscape:label="Слой 1"
     inkscape:groupmode="layer"
     id="layer1"
     transform="translate(-96.305487,-165.74157)"><path
       style="fill:#555555;stroke-width:0.520049;fill-opacity:1"
       d="m 97.113447,173.30934 c 0.44438,-0.79461 0.81042,-1.51455 0.81344,-1.59985 0.004,-0.10282 -0.2032,-0.13157 -0.6137,-0.0853 l -0.61918,0.0698 v -0.56827 -0.56828 h 0.68799 c 0.37839,0 0.68797,-0.0447 0.68797,-0.0994 0,-0.0547 -0.37151,-0.76282 -0.82557,-1.57366 -0.45407,-0.81083 -0.82559,-1.50912 -0.82559,-1.55175 0,-0.0426 0.43344,-0.0775 0.96319,-0.0775 h 0.96316 v -0.75678 c 0,-0.41623 0.0619,-0.75678 0.1376,-0.75678 0.0757,0 0.14534,0.0619 0.15479,0.1376 0.009,0.0757 0.0327,0.19951 0.0516,0.27519 0.0189,0.0757 0.0421,0.35431 0.0516,0.61918 l 0.0172,0.48159 h 1.03198 c 0.567573,0 1.031973,0.059 1.031973,0.13114 0,0.0721 -0.40063,0.79966 -0.890293,1.61676 l -0.89028,1.48562 0.64949,0.0688 c 0.637443,0.0675 0.649493,0.0777 0.649493,0.55038 0,0.46398 -0.0214,0.4841 -0.584303,0.55038 l -0.58429,0.0688 0.893893,1.50061 c 0.49163,0.82533 0.89388,1.52191 0.89388,1.54797 0,0.026 -0.49211,0.0474 -1.093583,0.0474 h -1.09358 l -0.0416,0.71157 c -0.0594,1.01537 -0.38559,1.06822 -0.38559,0.0625 v -0.76247 l -1.01982,-0.0402 -1.01983,-0.0402 z"
       id="path1" /></g></svg>
